<mxfile host="app.diagrams.net" modified="2023-07-26T09:53:25.536Z" agent="Mozilla/5.0 (Macintosh; Intel Mac OS X 10_15_7) AppleWebKit/537.36 (KHTML, like Gecko) Chrome/114.0.0.0 Safari/537.36" version="21.2.9" etag="BTDBb56gObGIaFakGZ4X" type="github">
  <diagram name="第 1 页" id="B7R-xrX249IRu31mn7vP">
    <mxGraphModel>
      <root>
        <mxCell id="0" />
        <mxCell id="1" parent="0" />
      </root>
    </mxGraphModel>
  </diagram>
</mxfile>
